Coordinates
version=1
nRows=11
nColumns=63
inDegrees=yes

Units are S.I. units (second, meters, Newtons, ...)
If the header above contains a line with 'inDegrees', this indicates whether rotational values are in degrees (yes) or radians (no).

endheader
time	pelvis_tilt	pelvis_list	pelvis_rotation	pelvis_tx	pelvis_ty	pelvis_tz	hip_flexion_r	hip_adduction_r	hip_rotation_r	knee_angle_r	knee_angle_r_beta	ankle_angle_r	subtalar_angle_r	mtp_angle_r	hip_flexion_l	hip_adduction_l	hip_rotation_l	knee_angle_l	knee_angle_l_beta	ankle_angle_l	subtalar_angle_l	mtp_angle_l	L5_S1_Flex_Ext	L5_S1_Lat_Bending	L5_S1_axial_rotation	L4_L5_Flex_Ext	L4_L5_Lat_Bending	L4_L5_axial_rotation	L3_L4_Flex_Ext	L3_L4_Lat_Bending	L3_L4_axial_rotation	L2_L3_Flex_Ext	L2_L3_Lat_Bending	L2_L3_axial_rotation	L1_L2_Flex_Ext	L1_L2_Lat_Bending	L1_L2_axial_rotation	L1_T12_Flex_Ext	L1_T12_Lat_Bending	L1_T12_axial_rotation	Abs_r3	Abs_r2	Abs_r1	Abs_t1	Abs_t2	neck_flexion	neck_bending	neck_rotation	arm_flex_r	arm_add_r	arm_rot_r	elbow_flex_r	pro_sup_r	wrist_flex_r	wrist_dev_r	arm_flex_l	arm_add_l	arm_rot_l	elbow_flex_l	pro_sup_l	wrist_flex_l	wrist_dev_l
      3.39655172	      2.08639152	     -4.45541830	     94.00884467	      0.25397862	      0.75660389	      0.58994011	      6.53402497	     -0.37626782	     -5.23430564	     16.83322000	      0.29379511	     34.65605231	      1.58750272	      0.00000000	      1.73887132	     -1.32876024	      5.28566690	      5.60690245	      0.09785891	     35.14255681	     -1.46778415	      0.00000000	      0.00151156	      0.33652771	     -0.34315055	      0.00280712	      0.44758186	     -0.36459746	      0.00248335	      0.81823348	     -0.36459746	      0.00172756	      0.81823348	     -0.30025673	      0.00140364	      0.68624731	     -0.27880982	      0.00086371	      0.52128143	     -0.25736291	      0.01079694	      3.80686880	     -1.90850041	      0.00000000	      0.00000000	     20.89244146	      5.44452731	      4.55173244	      8.13371509	    -15.39162376	     46.92666504	     50.71898894	     61.17443936	      9.20946232	     13.19382605	     11.21944089	     -9.65507325	     53.95060765	     42.40143427	     83.82961178	     10.91865981	     -8.41096752
      3.41379310	      2.07690834	     -4.18109051	     94.02818951	      0.25400796	      0.75711359	      0.58964830	      6.17973960	     -0.35260046	     -5.16655711	     16.72207595	      0.29185528	     34.54935589	      1.51426559	      0.00000000	      1.37166229	     -1.33078702	      5.63040585	      5.39403649	      0.09414370	     35.19091443	     -1.55162420	      0.00000000	     -0.02349201	      0.32340038	     -0.34271815	     -0.04362701	      0.43012250	     -0.36413803	     -0.03859502	      0.78631568	     -0.36413803	     -0.02684902	      0.78631568	     -0.29987838	     -0.02181468	      0.65947805	     -0.27845850	     -0.01342333	      0.50094719	     -0.25703861	     -0.16780106	      3.65836976	     -1.90609553	      0.00000000	      0.00000000	     20.60557286	      5.87369845	      4.43073581	      8.28415069	    -15.22689452	     47.18600024	     50.41876003	     61.22047985	      9.34520235	     13.21479785	     11.30351761	     -9.78029087	     54.25298175	     42.51412985	     83.09325529	     10.89282994	     -7.43421345
      3.43103448	      2.09664800	     -4.20548164	     94.05250771	      0.25379591	      0.75710873	      0.58952562	      6.24858518	     -0.36095604	     -5.19710274	     16.81332962	      0.29344796	     34.56668183	      1.49424001	      0.00000000	      1.45432704	     -1.31331809	      5.60026729	      5.50219904	      0.09603149	     35.36732067	     -1.58302969	      0.00000000	     -0.00774783	      0.32122882	     -0.33979190	     -0.01438850	      0.42723433	     -0.36102889	     -0.01272892	      0.78103575	     -0.36102889	     -0.00885500	      0.78103575	     -0.29731791	     -0.00719464	      0.65504980	     -0.27608092	     -0.00442711	      0.49758344	     -0.25484393	     -0.05534200	      3.63380463	     -1.88982061	      0.00000000	      0.00000000	     20.46771238	      5.89326656	      4.41943797	      8.25206682	    -15.19537340	     47.22049515	     50.35239659	     61.15936257	      9.30808563	     13.17363049	     11.24621330	     -9.76325216	     54.27146535	     42.53078117	     82.77622450	     10.84390517	     -7.26094234
      3.44827586	      2.23293209	     -3.93736235	     94.06868531	      0.25379254	      0.75754665	      0.58857455	      5.72970516	     -0.13052035	     -4.92456251	     16.38474147	      0.28596769	     34.35021186	      1.19201988	      0.00000000	      0.91237198	     -1.46511238	      6.24999756	      5.13056887	      0.08954532	     35.05019199	     -2.44300093	      0.00000000	     -0.01604402	      0.33016089	     -0.35159408	     -0.02979535	      0.43911399	     -0.37356871	     -0.02635872	      0.80275320	     -0.37356871	     -0.01833671	      0.80275320	     -0.30764482	     -0.01489848	      0.67326409	     -0.28567019	     -0.00916755	      0.51141922	     -0.26369556	     -0.11460083	      3.73484606	     -1.95546079	      0.00000000	      0.00000000	     19.85661363	      6.54285811	      4.82805447	      8.21669468	    -15.00338120	     47.01780971	     49.88883338	     62.04318275	     10.30783992	     13.34007901	     10.96762388	     -9.64277323	     53.74167878	     42.33965252	     82.98229694	     11.26910315	     -7.14363594
      3.46551724	      2.33870978	     -4.03328631	     94.27147343	      0.25347101	      0.75730199	      0.58825720	      5.80643232	     -0.04265349	     -5.07493527	     16.38679991	      0.28600361	     34.36518507	      1.11137119	      0.00000000	      1.06422780	     -1.54405982	      6.29810445	      5.34932935	      0.09336341	     35.02034361	     -2.70217148	      0.00000000	      0.00593203	      0.33950597	     -0.38515062	      0.01101637	      0.45154294	     -0.40922254	      0.00974573	      0.82547482	     -0.40922254	      0.00677972	      0.82547482	     -0.33700680	      0.00550848	      0.69232058	     -0.31293488	      0.00338956	      0.52589475	     -0.28886297	      0.04237190	      3.84055946	     -2.14209222	      0.00000000	      0.00000000	     20.04478883	      6.53986044	      4.91000856	      8.14458116	    -15.02909326	     47.04755629	     49.90238811	     62.08336004	     10.17007065	     13.37207026	     10.85464112	     -9.68889333	     53.81471947	     42.47812943	     82.33507422	     11.18419567	     -6.94681185
      3.48275862	      2.45481255	     -3.84963624	     94.31141327	      0.25324260	      0.75739225	      0.58759432	      5.46781708	      0.15222665	     -4.78724163	     16.13755979	      0.28165355	     34.22735648	      0.63018293	      0.00000000	      0.67916582	     -1.61750701	      7.17534086	      5.18181958	      0.09043981	     34.46213568	     -4.42506852	      0.00000000	     -0.01170201	      0.35820940	     -0.41754916	     -0.02173181	      0.47641850	     -0.44364598	     -0.01922523	      0.87095033	     -0.44364598	     -0.01337423	      0.87095033	     -0.36535551	     -0.01086649	      0.73046060	     -0.33925869	     -0.00668653	      0.55486636	     -0.31316187	     -0.08358630	      4.05213634	     -2.32228314	      0.00000000	      0.00000000	     19.92197488	      6.82338033	      5.58122349	      8.08219000	    -15.03147261	     46.77613312	     49.91055023	     62.79336587	     10.59383105	     13.71867930	     10.49581022	     -9.56901175	     52.75365170	     42.51160803	     82.77982787	     11.95838440	     -6.81565295
      3.50000000	      2.53920774	     -3.81219536	     94.44930650	      0.25296903	      0.75731797	      0.58721359	      5.33066038	      0.24204722	     -4.94845228	     15.98977154	      0.27907416	     34.23172561	      0.66744350	      0.00000000	      0.60245654	     -1.69998046	      6.88101016	      5.28356390	      0.09221559	     34.26027208	     -4.44247544	      0.00000000	     -0.01155702	      0.36861361	     -0.43571510	     -0.02146254	      0.49025610	     -0.46294730	     -0.01898703	      0.89624712	     -0.46294730	     -0.01320852	      0.89624712	     -0.38125071	     -0.01073185	      0.75167687	     -0.35401852	     -0.00660368	      0.57098248	     -0.32678633	     -0.08255063	      4.16983085	     -2.42331668	      0.00000000	      0.00000000	     20.14446579	      6.76050775	      5.54638340	      8.03234901	    -15.16542941	     46.86048838	     50.07417476	     62.64505783	     10.35461982	     13.79645229	     10.48412094	     -9.63456822	     52.92967003	     42.66902707	     82.48258360	     11.83962157	     -6.72868007
      3.51724138	      2.65344245	     -3.73948182	     94.64737263	      0.25260188	      0.75725791	      0.58710602	      5.15906552	      0.33999370	     -5.36191102	     15.82204739	      0.27614682	     34.25165026	      0.91767742	      0.00000000	      0.53715438	     -1.86134150	      5.89143937	      5.40417514	      0.09432065	     34.31727285	     -3.29596717	      0.00000000	     -0.02442710	      0.38425408	     -0.47266557	     -0.04536356	      0.51105792	     -0.50220717	     -0.04013128	      0.93427536	     -0.50220717	     -0.02791773	      0.93427536	     -0.41358238	     -0.02268300	      0.78357091	     -0.38404078	     -0.01395764	      0.59520956	     -0.35449918	     -0.17448032	      4.34675897	     -2.62882411	      0.00000000	      0.00000000	     20.62389786	      6.76850550	      5.57072153	      8.16158803	    -15.43036081	     47.37085941	     50.37876943	     61.52262391	      9.75104869	     14.00081459	     10.66281765	     -9.81752112	     53.82397197	     42.99344904	     79.96288724	     11.34871042	     -6.00015979
      3.53448276	      2.76236541	     -3.72768187	     94.71414681	      0.25236771	      0.75713695	      0.58700021	      5.08625403	      0.43561964	     -5.67879738	     15.70205326	      0.27405253	     34.27946788	      1.20700250	      0.00000000	      0.50602774	     -2.00727575	      5.06204979	      5.45686839	      0.09524032	     34.39219697	     -2.33795934	      0.00000000	     -0.02073212	      0.40059991	     -0.48269369	     -0.03850163	      0.53279787	     -0.51286205	     -0.03406080	      0.97401861	     -0.51286205	     -0.02369474	      0.97401861	     -0.42235698	     -0.01925185	      0.81690333	     -0.39218862	     -0.01184634	      0.62052925	     -0.36202027	     -0.14808748	      4.53166625	     -2.68459750	      0.00000000	      0.00000000	     21.00606871	      6.76008929	      5.62227851	      8.18027384	    -15.64493775	     47.55823391	     50.65387826	     60.59933263	      9.40552723	     14.39955431	     10.75843048	     -9.84539387	     54.31053945	     43.08155207	     78.87253788	     11.04406231	     -5.81759546
      3.55172414	      2.74642005	     -3.82287697	     94.70955921	      0.25232995	      0.75687313	      0.58699470	      5.21803778	      0.41387137	     -5.74665489	     15.78099413	      0.27543031	     34.33221698	      1.18981377	      0.00000000	      0.57653301	     -1.98277287	      4.93634864	      5.46228348	      0.09533483	     34.48918480	     -2.32403180	      0.00000000	      0.00469381	      0.40029332	     -0.48596015	      0.00871688	      0.53239012	     -0.51633266	      0.00771147	      0.97327319	     -0.51633266	      0.00536456	      0.97327319	     -0.42521513	      0.00435867	      0.81627814	     -0.39484262	      0.00268204	      0.62005436	     -0.36447011	      0.03352744	      4.52819813	     -2.70276456	      0.00000000	      0.00000000	     21.16078106	      6.73506576	      5.61785732	      8.16784518	    -15.67414382	     47.56114139	     50.69341776	     60.48991708	      9.33945113	     14.39339887	     10.72165169	     -9.86494744	     54.34446849	     43.12808351	     78.80599776	     10.96956286	     -5.72820444
      3.56896552	      2.96757858	     -3.81947960	     94.82494180	      0.25200763	      0.75665918	      0.58705206	      5.16716752	      0.63700457	     -6.00163315	     15.67065156	      0.27350447	     34.31680967	      1.25914794	      0.00000000	      0.69884687	     -2.28712196	      3.95751287	      5.69507248	      0.09939777	     34.91069835	     -0.53234571	      0.00000000	      0.00068346	      0.43436170	     -0.48024641	      0.00126925	      0.57770107	     -0.51026182	      0.00112286	      1.05610705	     -0.51026182	      0.00078113	      1.05610705	     -0.42021561	      0.00063466	      0.88575039	     -0.39020021	      0.00039053	      0.67282628	     -0.36018481	      0.00488188	      4.91358647	     -2.67098648	      0.00000000	      0.00000000	     22.03976303	      6.88140159	      5.79746180	      7.90132112	    -15.84748422	     46.59915085	     51.35204530	     57.99092068	      9.07161842	     16.84711428	     10.78916705	     -9.61539093	     54.20044744	     42.90965205	     80.25955226	     11.02325437	     -6.51831936
